<?xml version="1.0" standalone="no"?>
<!DOCTYPE svg PUBLIC "-//W3C//DTD SVG 20010904//EN"
 "http://www.w3.org/TR/2001/REC-SVG-20010904/DTD/svg10.dtd">
<svg version="1.0" xmlns="http://www.w3.org/2000/svg"
 width="56" height="56" viewBox="0 0 512.000000 512.000000"
 preserveAspectRatio="xMidYMid meet">

<g transform="translate(0.000000,512.000000) scale(0.100000,-0.100000)"
fill="#000000" stroke="none">
<path d="M1629 4961 c-133 -26 -207 -157 -215 -381 l-4 -115 -28 -3 c-170 -17
-336 -90 -454 -200 -55 -51 -78 -88 -78 -126 0 -44 48 -179 87 -245 46 -77
155 -196 212 -231 22 -14 41 -28 41 -32 0 -4 -13 -30 -30 -56 -105 -172 -132
-332 -73 -433 29 -49 131 -112 243 -151 95 -33 291 -35 371 -3 13 5 19 -4 28
-41 17 -68 55 -144 94 -189 28 -32 40 -39 68 -38 41 1 141 42 224 91 250 148
384 369 385 632 l0 85 36 -50 c53 -74 100 -173 131 -272 24 -82 26 -104 31
-324 l4 -237 -53 -17 c-127 -42 -222 -110 -284 -204 l-27 -40 -25 37 c-95 142
-247 222 -422 222 -135 0 -238 -41 -338 -134 -208 -193 -217 -515 -21 -715 84
-86 190 -137 321 -156 26 -3 47 -7 47 -9 0 -2 -10 -29 -22 -62 -29 -79 -31
-225 -4 -304 60 -176 193 -300 371 -345 32 -8 73 -15 91 -15 l32 0 -25 -67
c-63 -174 -11 -385 128 -521 193 -189 505 -189 698 0 139 135 191 347 129 519
l-24 66 75 17 c194 45 338 186 385 377 26 104 19 177 -29 327 -7 20 -4 22 27
22 83 0 211 64 293 145 98 98 145 215 145 357 0 276 -222 498 -498 498 -168 0
-307 -69 -406 -201 l-43 -57 -18 30 c-28 48 -118 133 -176 165 -30 17 -80 38
-111 47 l-58 16 6 93 c11 167 27 228 89 332 38 65 68 103 94 120 41 28 138 52
165 42 15 -6 13 -14 -20 -73 -65 -116 -64 -205 3 -283 47 -56 99 -81 166 -81
101 0 166 47 225 161 69 133 32 244 -112 334 -13 9 -6 26 54 130 74 127 84
166 53 204 -10 11 -32 24 -50 27 -44 9 -73 -22 -152 -164 l-63 -113 -32 8
c-17 4 -70 8 -117 8 l-87 0 21 30 c12 17 58 68 102 114 172 179 418 303 720
362 121 23 151 37 166 76 11 31 6 52 -22 81 -26 28 -55 28 -202 -3 -472 -98
-822 -350 -1008 -727 l-32 -66 -42 102 c-52 127 -118 228 -218 333 l-79 82 54
60 c206 228 248 534 113 820 -73 154 -169 271 -221 271 -40 0 -136 -56 -193
-112 l-51 -50 -40 36 c-142 128 -360 198 -521 167z m224 -181 c82 -25 175 -87
230 -153 75 -90 84 -97 120 -97 38 0 66 25 86 77 17 41 99 125 120 121 22 -4
104 -145 131 -226 31 -93 38 -238 15 -318 -26 -89 -81 -186 -146 -258 l-59
-65 -74 34 c-115 54 -236 84 -376 96 -68 5 -142 7 -162 4 -68 -12 -101 -87
-58 -133 24 -25 47 -29 200 -36 134 -6 202 -23 323 -78 l87 -41 15 -51 c95
-335 -15 -579 -333 -740 l-49 -25 -18 37 c-12 25 -19 67 -22 126 -3 76 -6 93
-26 114 -27 29 -57 26 -167 -14 -138 -51 -307 -35 -416 39 l-49 32 0 61 c0 51
6 74 39 138 21 42 56 99 76 126 21 28 44 65 51 82 18 44 -2 75 -81 120 -133
76 -232 189 -273 310 l-20 59 29 29 c43 43 141 98 214 121 39 12 108 23 175
26 157 9 154 6 147 201 -5 161 4 224 39 274 19 26 25 28 94 28 45 0 98 -8 138
-20z m1600 -1687 c19 -42 -41 -143 -85 -143 -29 0 -58 28 -58 57 0 21 35 94
63 130 12 17 65 -13 80 -44z m-1409 -648 c215 -109 255 -391 79 -556 -120
-113 -314 -119 -444 -15 -90 72 -142 208 -121 318 24 132 112 234 235 274 69
23 184 13 251 -21z m888 -3 c118 -58 181 -154 186 -287 5 -111 -21 -180 -97
-256 -77 -76 -146 -103 -256 -97 -133 7 -238 78 -294 197 -35 76 -37 201 -4
274 85 184 286 257 465 169z m880 6 c70 -32 133 -96 167 -168 22 -46 26 -69
26 -140 0 -71 -4 -94 -27 -142 -32 -69 -96 -134 -163 -168 -43 -21 -64 -25
-145 -25 -86 0 -101 3 -154 30 -117 60 -186 172 -186 304 0 79 11 117 56 187
38 62 83 98 161 130 79 33 183 30 265 -8z m-1316 -732 c75 -35 136 -95 170
-169 24 -52 29 -75 29 -142 0 -71 -4 -89 -33 -148 -128 -259 -489 -254 -614
10 -52 111 -38 240 37 343 40 54 111 106 164 119 20 5 45 12 56 15 40 10 139
-5 191 -28z m892 -1 c71 -33 145 -110 172 -182 27 -70 30 -177 6 -241 -34 -93
-116 -175 -208 -208 -52 -19 -158 -21 -213 -4 -62 18 -145 80 -182 133 -42 63
-57 115 -57 203 2 154 115 292 266 324 63 13 156 2 216 -25z m-441 -727 c70
-26 145 -95 180 -166 24 -50 28 -69 28 -147 0 -76 -4 -99 -26 -145 -33 -70
-95 -132 -167 -167 -82 -40 -202 -40 -284 0 -72 35 -134 97 -167 167 -22 46
-26 69 -26 145 0 78 4 97 28 146 48 99 147 171 256 188 59 9 113 3 178 -21z"/>
</g>
</svg>
